<mxfile host="app.diagrams.net" modified="2023-08-04T21:27:58.729Z" agent="Mozilla/5.0 (Windows NT 10.0; Win64; x64) AppleWebKit/537.36 (KHTML, like Gecko) Chrome/115.0.0.0 Safari/537.36" etag="gbT1r5p4sAjBtA3AES39" version="21.6.6" type="device">
  <diagram name="Page-1" id="Jjc7R5ZdaMOm0w6R251f">
    <mxGraphModel dx="4412" dy="1875" grid="1" gridSize="10" guides="1" tooltips="1" connect="1" arrows="1" fold="1" page="1" pageScale="1" pageWidth="827" pageHeight="1169" math="0" shadow="0">
      <root>
        <mxCell id="0" />
        <mxCell id="1" parent="0" />
        <mxCell id="j3tMJ75PGgOThGVsg167-65" value="&lt;b style=&quot;font-size: 24px;&quot;&gt;Harshil - Feature 1 -&amp;nbsp;User Authentication&lt;br&gt;&amp;nbsp;&amp;amp; Feature 2 -&amp;nbsp;User Profile Management&lt;/b&gt;" style="fillColor=#EFF0F3;strokeColor=none;dashed=0;verticalAlign=top;fontStyle=0;fontColor=#232F3D;whiteSpace=wrap;html=1;" vertex="1" parent="1">
          <mxGeometry x="-800" y="40" width="2010" height="1540" as="geometry" />
        </mxCell>
        <mxCell id="j3tMJ75PGgOThGVsg167-12" style="edgeStyle=orthogonalEdgeStyle;rounded=0;orthogonalLoop=1;jettySize=auto;html=1;entryX=0;entryY=0.21;entryDx=0;entryDy=0;entryPerimeter=0;" edge="1" parent="1" source="MUI-Xdzw0gOR01t9gRZl-2" target="MUI-Xdzw0gOR01t9gRZl-6">
          <mxGeometry relative="1" as="geometry" />
        </mxCell>
        <mxCell id="j3tMJ75PGgOThGVsg167-37" style="edgeStyle=orthogonalEdgeStyle;rounded=0;orthogonalLoop=1;jettySize=auto;html=1;" edge="1" parent="1" source="MUI-Xdzw0gOR01t9gRZl-2" target="j3tMJ75PGgOThGVsg167-1">
          <mxGeometry relative="1" as="geometry" />
        </mxCell>
        <mxCell id="j3tMJ75PGgOThGVsg167-38" style="edgeStyle=orthogonalEdgeStyle;rounded=0;orthogonalLoop=1;jettySize=auto;html=1;entryX=0;entryY=0.8;entryDx=0;entryDy=0;entryPerimeter=0;" edge="1" parent="1" source="MUI-Xdzw0gOR01t9gRZl-2" target="j3tMJ75PGgOThGVsg167-3">
          <mxGeometry relative="1" as="geometry">
            <mxPoint x="-210" y="700" as="targetPoint" />
          </mxGeometry>
        </mxCell>
        <mxCell id="j3tMJ75PGgOThGVsg167-39" style="edgeStyle=orthogonalEdgeStyle;rounded=0;orthogonalLoop=1;jettySize=auto;html=1;entryX=0;entryY=0.21;entryDx=0;entryDy=0;entryPerimeter=0;" edge="1" parent="1" source="MUI-Xdzw0gOR01t9gRZl-2" target="j3tMJ75PGgOThGVsg167-2">
          <mxGeometry relative="1" as="geometry" />
        </mxCell>
        <mxCell id="j3tMJ75PGgOThGVsg167-40" style="edgeStyle=orthogonalEdgeStyle;rounded=0;orthogonalLoop=1;jettySize=auto;html=1;entryX=0;entryY=0.21;entryDx=0;entryDy=0;entryPerimeter=0;" edge="1" parent="1" source="MUI-Xdzw0gOR01t9gRZl-2" target="j3tMJ75PGgOThGVsg167-4">
          <mxGeometry relative="1" as="geometry" />
        </mxCell>
        <mxCell id="j3tMJ75PGgOThGVsg167-41" style="edgeStyle=orthogonalEdgeStyle;rounded=0;orthogonalLoop=1;jettySize=auto;html=1;entryX=0;entryY=0.21;entryDx=0;entryDy=0;entryPerimeter=0;" edge="1" parent="1" source="MUI-Xdzw0gOR01t9gRZl-2" target="j3tMJ75PGgOThGVsg167-5">
          <mxGeometry relative="1" as="geometry" />
        </mxCell>
        <mxCell id="j3tMJ75PGgOThGVsg167-42" style="edgeStyle=orthogonalEdgeStyle;rounded=0;orthogonalLoop=1;jettySize=auto;html=1;entryX=0;entryY=0.21;entryDx=0;entryDy=0;entryPerimeter=0;" edge="1" parent="1" source="MUI-Xdzw0gOR01t9gRZl-2" target="j3tMJ75PGgOThGVsg167-6">
          <mxGeometry relative="1" as="geometry" />
        </mxCell>
        <mxCell id="j3tMJ75PGgOThGVsg167-43" style="edgeStyle=orthogonalEdgeStyle;rounded=0;orthogonalLoop=1;jettySize=auto;html=1;entryX=0;entryY=0.21;entryDx=0;entryDy=0;entryPerimeter=0;" edge="1" parent="1" source="MUI-Xdzw0gOR01t9gRZl-2" target="j3tMJ75PGgOThGVsg167-7">
          <mxGeometry relative="1" as="geometry" />
        </mxCell>
        <mxCell id="j3tMJ75PGgOThGVsg167-59" style="edgeStyle=orthogonalEdgeStyle;rounded=0;orthogonalLoop=1;jettySize=auto;html=1;entryX=1;entryY=0.5;entryDx=0;entryDy=0;" edge="1" parent="1" source="MUI-Xdzw0gOR01t9gRZl-2" target="j3tMJ75PGgOThGVsg167-57">
          <mxGeometry relative="1" as="geometry" />
        </mxCell>
        <mxCell id="j3tMJ75PGgOThGVsg167-64" value="Auth with email, Google, Facebook" style="edgeLabel;html=1;align=center;verticalAlign=middle;resizable=0;points=[];" vertex="1" connectable="0" parent="j3tMJ75PGgOThGVsg167-59">
          <mxGeometry x="-0.3054" y="-3" relative="1" as="geometry">
            <mxPoint as="offset" />
          </mxGeometry>
        </mxCell>
        <mxCell id="j3tMJ75PGgOThGVsg167-61" style="edgeStyle=orthogonalEdgeStyle;rounded=0;orthogonalLoop=1;jettySize=auto;html=1;" edge="1" parent="1" source="MUI-Xdzw0gOR01t9gRZl-2" target="j3tMJ75PGgOThGVsg167-60">
          <mxGeometry relative="1" as="geometry">
            <Array as="points">
              <mxPoint x="-687" y="430" />
            </Array>
          </mxGeometry>
        </mxCell>
        <mxCell id="j3tMJ75PGgOThGVsg167-63" value="Upload Profile Picture" style="edgeLabel;html=1;align=center;verticalAlign=middle;resizable=0;points=[];" vertex="1" connectable="0" parent="j3tMJ75PGgOThGVsg167-61">
          <mxGeometry x="-0.1256" y="5" relative="1" as="geometry">
            <mxPoint y="-1" as="offset" />
          </mxGeometry>
        </mxCell>
        <mxCell id="MUI-Xdzw0gOR01t9gRZl-2" value="" style="sketch=0;outlineConnect=0;fontColor=#232F3E;gradientColor=none;fillColor=#232F3D;strokeColor=none;dashed=0;verticalLabelPosition=bottom;verticalAlign=top;align=center;html=1;fontSize=12;fontStyle=0;aspect=fixed;pointerEvents=1;shape=mxgraph.aws4.user;" parent="1" vertex="1">
          <mxGeometry x="-310" y="370" width="78" height="78" as="geometry" />
        </mxCell>
        <mxCell id="MUI-Xdzw0gOR01t9gRZl-5" value="&lt;font style=&quot;font-size: 16px;&quot;&gt;AWS Cloud&lt;/font&gt;" style="points=[[0,0],[0.25,0],[0.5,0],[0.75,0],[1,0],[1,0.25],[1,0.5],[1,0.75],[1,1],[0.75,1],[0.5,1],[0.25,1],[0,1],[0,0.75],[0,0.5],[0,0.25]];outlineConnect=0;gradientColor=none;html=1;whiteSpace=wrap;fontSize=12;fontStyle=0;container=1;pointerEvents=0;collapsible=0;recursiveResize=0;shape=mxgraph.aws4.group;grIcon=mxgraph.aws4.group_aws_cloud_alt;strokeColor=#232F3E;fillColor=none;verticalAlign=top;align=left;spacingLeft=30;fontColor=#232F3E;dashed=0;" parent="1" vertex="1">
          <mxGeometry x="-60" y="170" width="1220" height="1340" as="geometry" />
        </mxCell>
        <mxCell id="j3tMJ75PGgOThGVsg167-10" style="edgeStyle=orthogonalEdgeStyle;rounded=0;orthogonalLoop=1;jettySize=auto;html=1;" edge="1" parent="MUI-Xdzw0gOR01t9gRZl-5" source="MUI-Xdzw0gOR01t9gRZl-6" target="j3tMJ75PGgOThGVsg167-9">
          <mxGeometry relative="1" as="geometry" />
        </mxCell>
        <mxCell id="j3tMJ75PGgOThGVsg167-11" value="POST" style="edgeLabel;html=1;align=center;verticalAlign=middle;resizable=0;points=[];" vertex="1" connectable="0" parent="j3tMJ75PGgOThGVsg167-10">
          <mxGeometry x="-0.2605" y="3" relative="1" as="geometry">
            <mxPoint x="11" y="3" as="offset" />
          </mxGeometry>
        </mxCell>
        <mxCell id="MUI-Xdzw0gOR01t9gRZl-6" value="check_security_question_dynamo" style="outlineConnect=0;dashed=0;verticalLabelPosition=bottom;verticalAlign=top;align=center;html=1;shape=mxgraph.aws3.api_gateway;fillColor=#D9A741;gradientColor=none;" parent="MUI-Xdzw0gOR01t9gRZl-5" vertex="1">
          <mxGeometry x="130" y="110" width="76.5" height="93" as="geometry" />
        </mxCell>
        <mxCell id="j3tMJ75PGgOThGVsg167-14" style="edgeStyle=orthogonalEdgeStyle;rounded=0;orthogonalLoop=1;jettySize=auto;html=1;" edge="1" parent="MUI-Xdzw0gOR01t9gRZl-5" source="j3tMJ75PGgOThGVsg167-1" target="j3tMJ75PGgOThGVsg167-13">
          <mxGeometry relative="1" as="geometry" />
        </mxCell>
        <mxCell id="j3tMJ75PGgOThGVsg167-15" value="POST" style="edgeLabel;html=1;align=center;verticalAlign=middle;resizable=0;points=[];" vertex="1" connectable="0" parent="j3tMJ75PGgOThGVsg167-14">
          <mxGeometry x="-0.0139" y="1" relative="1" as="geometry">
            <mxPoint as="offset" />
          </mxGeometry>
        </mxCell>
        <mxCell id="j3tMJ75PGgOThGVsg167-1" value="fetchQuesFirstNameLastNameByUserID" style="outlineConnect=0;dashed=0;verticalLabelPosition=bottom;verticalAlign=top;align=center;html=1;shape=mxgraph.aws3.api_gateway;fillColor=#D9A741;gradientColor=none;" vertex="1" parent="MUI-Xdzw0gOR01t9gRZl-5">
          <mxGeometry x="130" y="260" width="76.5" height="93" as="geometry" />
        </mxCell>
        <mxCell id="j3tMJ75PGgOThGVsg167-23" style="edgeStyle=orthogonalEdgeStyle;rounded=0;orthogonalLoop=1;jettySize=auto;html=1;entryX=0;entryY=0.5;entryDx=0;entryDy=0;entryPerimeter=0;" edge="1" parent="MUI-Xdzw0gOR01t9gRZl-5" source="j3tMJ75PGgOThGVsg167-2" target="j3tMJ75PGgOThGVsg167-22">
          <mxGeometry relative="1" as="geometry" />
        </mxCell>
        <mxCell id="j3tMJ75PGgOThGVsg167-24" value="GET" style="edgeLabel;html=1;align=center;verticalAlign=middle;resizable=0;points=[];" vertex="1" connectable="0" parent="j3tMJ75PGgOThGVsg167-23">
          <mxGeometry x="-0.3452" y="2" relative="1" as="geometry">
            <mxPoint as="offset" />
          </mxGeometry>
        </mxCell>
        <mxCell id="j3tMJ75PGgOThGVsg167-2" value="getAllUsers" style="outlineConnect=0;dashed=0;verticalLabelPosition=bottom;verticalAlign=top;align=center;html=1;shape=mxgraph.aws3.api_gateway;fillColor=#D9A741;gradientColor=none;" vertex="1" parent="MUI-Xdzw0gOR01t9gRZl-5">
          <mxGeometry x="120" y="560" width="76.5" height="93" as="geometry" />
        </mxCell>
        <mxCell id="j3tMJ75PGgOThGVsg167-26" style="edgeStyle=orthogonalEdgeStyle;rounded=0;orthogonalLoop=1;jettySize=auto;html=1;" edge="1" parent="MUI-Xdzw0gOR01t9gRZl-5" source="j3tMJ75PGgOThGVsg167-4" target="j3tMJ75PGgOThGVsg167-25">
          <mxGeometry relative="1" as="geometry" />
        </mxCell>
        <mxCell id="j3tMJ75PGgOThGVsg167-27" value="GET" style="edgeLabel;html=1;align=center;verticalAlign=middle;resizable=0;points=[];" vertex="1" connectable="0" parent="j3tMJ75PGgOThGVsg167-26">
          <mxGeometry x="-0.3871" relative="1" as="geometry">
            <mxPoint as="offset" />
          </mxGeometry>
        </mxCell>
        <mxCell id="j3tMJ75PGgOThGVsg167-4" value="getQuestionsFromDynamo" style="outlineConnect=0;dashed=0;verticalLabelPosition=bottom;verticalAlign=top;align=center;html=1;shape=mxgraph.aws3.api_gateway;fillColor=#D9A741;gradientColor=none;" vertex="1" parent="MUI-Xdzw0gOR01t9gRZl-5">
          <mxGeometry x="120" y="700" width="76.5" height="93" as="geometry" />
        </mxCell>
        <mxCell id="j3tMJ75PGgOThGVsg167-32" style="edgeStyle=orthogonalEdgeStyle;rounded=0;orthogonalLoop=1;jettySize=auto;html=1;" edge="1" parent="MUI-Xdzw0gOR01t9gRZl-5" source="j3tMJ75PGgOThGVsg167-6" target="j3tMJ75PGgOThGVsg167-31">
          <mxGeometry relative="1" as="geometry" />
        </mxCell>
        <mxCell id="j3tMJ75PGgOThGVsg167-33" value="PUT" style="edgeLabel;html=1;align=center;verticalAlign=middle;resizable=0;points=[];" vertex="1" connectable="0" parent="j3tMJ75PGgOThGVsg167-32">
          <mxGeometry x="-0.1214" y="2" relative="1" as="geometry">
            <mxPoint as="offset" />
          </mxGeometry>
        </mxCell>
        <mxCell id="j3tMJ75PGgOThGVsg167-6" value="storeUserToDynamoDB" style="outlineConnect=0;dashed=0;verticalLabelPosition=bottom;verticalAlign=top;align=center;html=1;shape=mxgraph.aws3.api_gateway;fillColor=#D9A741;gradientColor=none;" vertex="1" parent="MUI-Xdzw0gOR01t9gRZl-5">
          <mxGeometry x="110" y="999" width="76.5" height="93" as="geometry" />
        </mxCell>
        <mxCell id="j3tMJ75PGgOThGVsg167-17" style="edgeStyle=orthogonalEdgeStyle;rounded=0;orthogonalLoop=1;jettySize=auto;html=1;" edge="1" parent="MUI-Xdzw0gOR01t9gRZl-5" source="j3tMJ75PGgOThGVsg167-3" target="j3tMJ75PGgOThGVsg167-16">
          <mxGeometry relative="1" as="geometry" />
        </mxCell>
        <mxCell id="j3tMJ75PGgOThGVsg167-18" value="GET" style="edgeLabel;html=1;align=center;verticalAlign=middle;resizable=0;points=[];" vertex="1" connectable="0" parent="j3tMJ75PGgOThGVsg167-17">
          <mxGeometry x="-0.1373" y="3" relative="1" as="geometry">
            <mxPoint x="98" y="-43" as="offset" />
          </mxGeometry>
        </mxCell>
        <mxCell id="j3tMJ75PGgOThGVsg167-20" style="edgeStyle=orthogonalEdgeStyle;rounded=0;orthogonalLoop=1;jettySize=auto;html=1;" edge="1" parent="MUI-Xdzw0gOR01t9gRZl-5" source="j3tMJ75PGgOThGVsg167-3" target="j3tMJ75PGgOThGVsg167-19">
          <mxGeometry relative="1" as="geometry" />
        </mxCell>
        <mxCell id="j3tMJ75PGgOThGVsg167-21" value="POST" style="edgeLabel;html=1;align=center;verticalAlign=middle;resizable=0;points=[];" vertex="1" connectable="0" parent="j3tMJ75PGgOThGVsg167-20">
          <mxGeometry x="0.4682" relative="1" as="geometry">
            <mxPoint x="-1" as="offset" />
          </mxGeometry>
        </mxCell>
        <mxCell id="j3tMJ75PGgOThGVsg167-3" value="gameCompletionUserDetailsUpdate" style="outlineConnect=0;dashed=0;verticalLabelPosition=bottom;verticalAlign=top;align=center;html=1;shape=mxgraph.aws3.api_gateway;fillColor=#D9A741;gradientColor=none;" vertex="1" parent="MUI-Xdzw0gOR01t9gRZl-5">
          <mxGeometry x="120" y="414.5" width="76.5" height="93" as="geometry" />
        </mxCell>
        <mxCell id="j3tMJ75PGgOThGVsg167-45" style="edgeStyle=orthogonalEdgeStyle;rounded=0;orthogonalLoop=1;jettySize=auto;html=1;" edge="1" parent="MUI-Xdzw0gOR01t9gRZl-5" source="j3tMJ75PGgOThGVsg167-9" target="j3tMJ75PGgOThGVsg167-44">
          <mxGeometry relative="1" as="geometry" />
        </mxCell>
        <mxCell id="j3tMJ75PGgOThGVsg167-9" value="CheckSecurityQuestions" style="sketch=0;points=[[0,0,0],[0.25,0,0],[0.5,0,0],[0.75,0,0],[1,0,0],[0,1,0],[0.25,1,0],[0.5,1,0],[0.75,1,0],[1,1,0],[0,0.25,0],[0,0.5,0],[0,0.75,0],[1,0.25,0],[1,0.5,0],[1,0.75,0]];outlineConnect=0;fontColor=#232F3E;gradientColor=#F78E04;gradientDirection=north;fillColor=#D05C17;strokeColor=#ffffff;dashed=0;verticalLabelPosition=bottom;verticalAlign=top;align=center;html=1;fontSize=12;fontStyle=0;aspect=fixed;shape=mxgraph.aws4.resourceIcon;resIcon=mxgraph.aws4.lambda;" vertex="1" parent="MUI-Xdzw0gOR01t9gRZl-5">
          <mxGeometry x="650" y="117.5" width="78" height="78" as="geometry" />
        </mxCell>
        <mxCell id="j3tMJ75PGgOThGVsg167-46" style="edgeStyle=orthogonalEdgeStyle;rounded=0;orthogonalLoop=1;jettySize=auto;html=1;" edge="1" parent="MUI-Xdzw0gOR01t9gRZl-5" source="j3tMJ75PGgOThGVsg167-13" target="j3tMJ75PGgOThGVsg167-44">
          <mxGeometry relative="1" as="geometry">
            <Array as="points">
              <mxPoint x="1010" y="280" />
              <mxPoint x="1010" y="280" />
            </Array>
          </mxGeometry>
        </mxCell>
        <mxCell id="j3tMJ75PGgOThGVsg167-13" value="fetchQuesFirstNameLastNameByUserID" style="sketch=0;points=[[0,0,0],[0.25,0,0],[0.5,0,0],[0.75,0,0],[1,0,0],[0,1,0],[0.25,1,0],[0.5,1,0],[0.75,1,0],[1,1,0],[0,0.25,0],[0,0.5,0],[0,0.75,0],[1,0.25,0],[1,0.5,0],[1,0.75,0]];outlineConnect=0;fontColor=#232F3E;gradientColor=#F78E04;gradientDirection=north;fillColor=#D05C17;strokeColor=#ffffff;dashed=0;verticalLabelPosition=bottom;verticalAlign=top;align=center;html=1;fontSize=12;fontStyle=0;aspect=fixed;shape=mxgraph.aws4.resourceIcon;resIcon=mxgraph.aws4.lambda;" vertex="1" parent="MUI-Xdzw0gOR01t9gRZl-5">
          <mxGeometry x="640" y="267.5" width="78" height="78" as="geometry" />
        </mxCell>
        <mxCell id="j3tMJ75PGgOThGVsg167-47" style="edgeStyle=orthogonalEdgeStyle;rounded=0;orthogonalLoop=1;jettySize=auto;html=1;" edge="1" parent="MUI-Xdzw0gOR01t9gRZl-5">
          <mxGeometry relative="1" as="geometry">
            <mxPoint x="718" y="425" as="sourcePoint" />
            <mxPoint x="1070" y="300" as="targetPoint" />
            <Array as="points">
              <mxPoint x="894" y="425" />
              <mxPoint x="894" y="300" />
            </Array>
          </mxGeometry>
        </mxCell>
        <mxCell id="j3tMJ75PGgOThGVsg167-16" value="getGameDetailsByUserID" style="sketch=0;points=[[0,0,0],[0.25,0,0],[0.5,0,0],[0.75,0,0],[1,0,0],[0,1,0],[0.25,1,0],[0.5,1,0],[0.75,1,0],[1,1,0],[0,0.25,0],[0,0.5,0],[0,0.75,0],[1,0.25,0],[1,0.5,0],[1,0.75,0]];outlineConnect=0;fontColor=#232F3E;gradientColor=#F78E04;gradientDirection=north;fillColor=#D05C17;strokeColor=#ffffff;dashed=0;verticalLabelPosition=bottom;verticalAlign=top;align=center;html=1;fontSize=12;fontStyle=0;aspect=fixed;shape=mxgraph.aws4.resourceIcon;resIcon=mxgraph.aws4.lambda;" vertex="1" parent="MUI-Xdzw0gOR01t9gRZl-5">
          <mxGeometry x="640" y="376" width="78" height="78" as="geometry" />
        </mxCell>
        <mxCell id="j3tMJ75PGgOThGVsg167-48" style="edgeStyle=orthogonalEdgeStyle;rounded=0;orthogonalLoop=1;jettySize=auto;html=1;exitX=1;exitY=0.5;exitDx=0;exitDy=0;exitPerimeter=0;" edge="1" parent="MUI-Xdzw0gOR01t9gRZl-5" source="j3tMJ75PGgOThGVsg167-19" target="j3tMJ75PGgOThGVsg167-44">
          <mxGeometry relative="1" as="geometry" />
        </mxCell>
        <mxCell id="j3tMJ75PGgOThGVsg167-19" value="gameCompletionUserDetailsUpdate" style="sketch=0;points=[[0,0,0],[0.25,0,0],[0.5,0,0],[0.75,0,0],[1,0,0],[0,1,0],[0.25,1,0],[0.5,1,0],[0.75,1,0],[1,1,0],[0,0.25,0],[0,0.5,0],[0,0.75,0],[1,0.25,0],[1,0.5,0],[1,0.75,0]];outlineConnect=0;fontColor=#232F3E;gradientColor=#F78E04;gradientDirection=north;fillColor=#D05C17;strokeColor=#ffffff;dashed=0;verticalLabelPosition=bottom;verticalAlign=top;align=center;html=1;fontSize=12;fontStyle=0;aspect=fixed;shape=mxgraph.aws4.resourceIcon;resIcon=mxgraph.aws4.lambda;" vertex="1" parent="MUI-Xdzw0gOR01t9gRZl-5">
          <mxGeometry x="640" y="500" width="78" height="78" as="geometry" />
        </mxCell>
        <mxCell id="j3tMJ75PGgOThGVsg167-49" style="edgeStyle=orthogonalEdgeStyle;rounded=0;orthogonalLoop=1;jettySize=auto;html=1;exitX=1;exitY=0.5;exitDx=0;exitDy=0;exitPerimeter=0;" edge="1" parent="MUI-Xdzw0gOR01t9gRZl-5" source="j3tMJ75PGgOThGVsg167-22" target="j3tMJ75PGgOThGVsg167-44">
          <mxGeometry relative="1" as="geometry" />
        </mxCell>
        <mxCell id="j3tMJ75PGgOThGVsg167-22" value="getAllUsersSDP" style="sketch=0;points=[[0,0,0],[0.25,0,0],[0.5,0,0],[0.75,0,0],[1,0,0],[0,1,0],[0.25,1,0],[0.5,1,0],[0.75,1,0],[1,1,0],[0,0.25,0],[0,0.5,0],[0,0.75,0],[1,0.25,0],[1,0.5,0],[1,0.75,0]];outlineConnect=0;fontColor=#232F3E;gradientColor=#F78E04;gradientDirection=north;fillColor=#D05C17;strokeColor=#ffffff;dashed=0;verticalLabelPosition=bottom;verticalAlign=top;align=center;html=1;fontSize=12;fontStyle=0;aspect=fixed;shape=mxgraph.aws4.resourceIcon;resIcon=mxgraph.aws4.lambda;" vertex="1" parent="MUI-Xdzw0gOR01t9gRZl-5">
          <mxGeometry x="640" y="622" width="78" height="78" as="geometry" />
        </mxCell>
        <mxCell id="j3tMJ75PGgOThGVsg167-51" style="edgeStyle=orthogonalEdgeStyle;rounded=0;orthogonalLoop=1;jettySize=auto;html=1;" edge="1" parent="MUI-Xdzw0gOR01t9gRZl-5" source="j3tMJ75PGgOThGVsg167-25" target="j3tMJ75PGgOThGVsg167-50">
          <mxGeometry relative="1" as="geometry" />
        </mxCell>
        <mxCell id="j3tMJ75PGgOThGVsg167-25" value="getQuestionsFromDynamo" style="sketch=0;points=[[0,0,0],[0.25,0,0],[0.5,0,0],[0.75,0,0],[1,0,0],[0,1,0],[0.25,1,0],[0.5,1,0],[0.75,1,0],[1,1,0],[0,0.25,0],[0,0.5,0],[0,0.75,0],[1,0.25,0],[1,0.5,0],[1,0.75,0]];outlineConnect=0;fontColor=#232F3E;gradientColor=#F78E04;gradientDirection=north;fillColor=#D05C17;strokeColor=#ffffff;dashed=0;verticalLabelPosition=bottom;verticalAlign=top;align=center;html=1;fontSize=12;fontStyle=0;aspect=fixed;shape=mxgraph.aws4.resourceIcon;resIcon=mxgraph.aws4.lambda;" vertex="1" parent="MUI-Xdzw0gOR01t9gRZl-5">
          <mxGeometry x="630" y="740" width="78" height="78" as="geometry" />
        </mxCell>
        <mxCell id="j3tMJ75PGgOThGVsg167-52" style="edgeStyle=orthogonalEdgeStyle;rounded=0;orthogonalLoop=1;jettySize=auto;html=1;" edge="1" parent="MUI-Xdzw0gOR01t9gRZl-5" source="j3tMJ75PGgOThGVsg167-28" target="j3tMJ75PGgOThGVsg167-44">
          <mxGeometry relative="1" as="geometry" />
        </mxCell>
        <mxCell id="j3tMJ75PGgOThGVsg167-28" value="increaseGamesPlayed" style="sketch=0;points=[[0,0,0],[0.25,0,0],[0.5,0,0],[0.75,0,0],[1,0,0],[0,1,0],[0.25,1,0],[0.5,1,0],[0.75,1,0],[1,1,0],[0,0.25,0],[0,0.5,0],[0,0.75,0],[1,0.25,0],[1,0.5,0],[1,0.75,0]];outlineConnect=0;fontColor=#232F3E;gradientColor=#F78E04;gradientDirection=north;fillColor=#D05C17;strokeColor=#ffffff;dashed=0;verticalLabelPosition=bottom;verticalAlign=top;align=center;html=1;fontSize=12;fontStyle=0;aspect=fixed;shape=mxgraph.aws4.resourceIcon;resIcon=mxgraph.aws4.lambda;" vertex="1" parent="MUI-Xdzw0gOR01t9gRZl-5">
          <mxGeometry x="620" y="860" width="78" height="78" as="geometry" />
        </mxCell>
        <mxCell id="j3tMJ75PGgOThGVsg167-53" style="edgeStyle=orthogonalEdgeStyle;rounded=0;orthogonalLoop=1;jettySize=auto;html=1;" edge="1" parent="MUI-Xdzw0gOR01t9gRZl-5" source="j3tMJ75PGgOThGVsg167-31" target="j3tMJ75PGgOThGVsg167-44">
          <mxGeometry relative="1" as="geometry" />
        </mxCell>
        <mxCell id="j3tMJ75PGgOThGVsg167-31" value="storeUserToDynamoDB" style="sketch=0;points=[[0,0,0],[0.25,0,0],[0.5,0,0],[0.75,0,0],[1,0,0],[0,1,0],[0.25,1,0],[0.5,1,0],[0.75,1,0],[1,1,0],[0,0.25,0],[0,0.5,0],[0,0.75,0],[1,0.25,0],[1,0.5,0],[1,0.75,0]];outlineConnect=0;fontColor=#232F3E;gradientColor=#F78E04;gradientDirection=north;fillColor=#D05C17;strokeColor=#ffffff;dashed=0;verticalLabelPosition=bottom;verticalAlign=top;align=center;html=1;fontSize=12;fontStyle=0;aspect=fixed;shape=mxgraph.aws4.resourceIcon;resIcon=mxgraph.aws4.lambda;" vertex="1" parent="MUI-Xdzw0gOR01t9gRZl-5">
          <mxGeometry x="620" y="1006.5" width="78" height="78" as="geometry" />
        </mxCell>
        <mxCell id="j3tMJ75PGgOThGVsg167-55" style="edgeStyle=orthogonalEdgeStyle;rounded=0;orthogonalLoop=1;jettySize=auto;html=1;" edge="1" parent="MUI-Xdzw0gOR01t9gRZl-5" source="j3tMJ75PGgOThGVsg167-34" target="j3tMJ75PGgOThGVsg167-44">
          <mxGeometry relative="1" as="geometry" />
        </mxCell>
        <mxCell id="j3tMJ75PGgOThGVsg167-34" value="UpdateUserDetails" style="sketch=0;points=[[0,0,0],[0.25,0,0],[0.5,0,0],[0.75,0,0],[1,0,0],[0,1,0],[0.25,1,0],[0.5,1,0],[0.75,1,0],[1,1,0],[0,0.25,0],[0,0.5,0],[0,0.75,0],[1,0.25,0],[1,0.5,0],[1,0.75,0]];outlineConnect=0;fontColor=#232F3E;gradientColor=#F78E04;gradientDirection=north;fillColor=#D05C17;strokeColor=#ffffff;dashed=0;verticalLabelPosition=bottom;verticalAlign=top;align=center;html=1;fontSize=12;fontStyle=0;aspect=fixed;shape=mxgraph.aws4.resourceIcon;resIcon=mxgraph.aws4.lambda;" vertex="1" parent="MUI-Xdzw0gOR01t9gRZl-5">
          <mxGeometry x="620" y="1160" width="78" height="78" as="geometry" />
        </mxCell>
        <mxCell id="j3tMJ75PGgOThGVsg167-44" value="Amazon DynamoDB&lt;br&gt;&lt;span style=&quot;font-weight: normal;&quot;&gt;Users&lt;/span&gt;" style="sketch=0;outlineConnect=0;fontColor=#232F3E;gradientColor=none;strokeColor=#ffffff;fillColor=#232F3E;dashed=0;verticalLabelPosition=middle;verticalAlign=bottom;align=center;html=1;whiteSpace=wrap;fontSize=10;fontStyle=1;spacing=3;shape=mxgraph.aws4.productIcon;prIcon=mxgraph.aws4.dynamodb;" vertex="1" parent="MUI-Xdzw0gOR01t9gRZl-5">
          <mxGeometry x="1070" y="251.5" width="80" height="128.5" as="geometry" />
        </mxCell>
        <mxCell id="j3tMJ75PGgOThGVsg167-50" value="Amazon DynamoDB&lt;br&gt;&lt;span style=&quot;font-weight: normal;&quot;&gt;sdpQuestions&lt;/span&gt;" style="sketch=0;outlineConnect=0;fontColor=#232F3E;gradientColor=none;strokeColor=#ffffff;fillColor=#232F3E;dashed=0;verticalLabelPosition=middle;verticalAlign=bottom;align=center;html=1;whiteSpace=wrap;fontSize=10;fontStyle=1;spacing=3;shape=mxgraph.aws4.productIcon;prIcon=mxgraph.aws4.dynamodb;" vertex="1" parent="MUI-Xdzw0gOR01t9gRZl-5">
          <mxGeometry x="970" y="719" width="80" height="120" as="geometry" />
        </mxCell>
        <mxCell id="j3tMJ75PGgOThGVsg167-29" style="edgeStyle=orthogonalEdgeStyle;rounded=0;orthogonalLoop=1;jettySize=auto;html=1;" edge="1" parent="1" source="j3tMJ75PGgOThGVsg167-5" target="j3tMJ75PGgOThGVsg167-28">
          <mxGeometry relative="1" as="geometry" />
        </mxCell>
        <mxCell id="j3tMJ75PGgOThGVsg167-30" value="POST" style="edgeLabel;html=1;align=center;verticalAlign=middle;resizable=0;points=[];" vertex="1" connectable="0" parent="j3tMJ75PGgOThGVsg167-29">
          <mxGeometry x="-0.2453" y="1" relative="1" as="geometry">
            <mxPoint as="offset" />
          </mxGeometry>
        </mxCell>
        <mxCell id="j3tMJ75PGgOThGVsg167-5" value="increaseGamesPlayed" style="outlineConnect=0;dashed=0;verticalLabelPosition=bottom;verticalAlign=top;align=center;html=1;shape=mxgraph.aws3.api_gateway;fillColor=#D9A741;gradientColor=none;" vertex="1" parent="1">
          <mxGeometry x="50" y="1020" width="76.5" height="93" as="geometry" />
        </mxCell>
        <mxCell id="j3tMJ75PGgOThGVsg167-35" style="edgeStyle=orthogonalEdgeStyle;rounded=0;orthogonalLoop=1;jettySize=auto;html=1;" edge="1" parent="1" source="j3tMJ75PGgOThGVsg167-7" target="j3tMJ75PGgOThGVsg167-34">
          <mxGeometry relative="1" as="geometry" />
        </mxCell>
        <mxCell id="j3tMJ75PGgOThGVsg167-36" value="PATCH" style="edgeLabel;html=1;align=center;verticalAlign=middle;resizable=0;points=[];" vertex="1" connectable="0" parent="j3tMJ75PGgOThGVsg167-35">
          <mxGeometry x="-0.2681" y="-4" relative="1" as="geometry">
            <mxPoint as="offset" />
          </mxGeometry>
        </mxCell>
        <mxCell id="j3tMJ75PGgOThGVsg167-7" value="UpdateUserDetails" style="outlineConnect=0;dashed=0;verticalLabelPosition=bottom;verticalAlign=top;align=center;html=1;shape=mxgraph.aws3.api_gateway;fillColor=#D9A741;gradientColor=none;" vertex="1" parent="1">
          <mxGeometry x="50" y="1300" width="76.5" height="93" as="geometry" />
        </mxCell>
        <mxCell id="j3tMJ75PGgOThGVsg167-56" value="&lt;font style=&quot;font-size: 16px;&quot;&gt;&lt;b&gt;Google Cloud&amp;nbsp;&lt;/b&gt;&lt;/font&gt;" style="fillColor=none;strokeColor=#5A6C86;dashed=1;verticalAlign=top;fontStyle=0;fontColor=#5A6C86;whiteSpace=wrap;html=1;" vertex="1" parent="1">
          <mxGeometry x="-730" y="200" width="300" height="550" as="geometry" />
        </mxCell>
        <mxCell id="j3tMJ75PGgOThGVsg167-57" value="&#xa;    &#xa;     Auth" style="strokeColor=#dddddd;shadow=1;strokeWidth=1;rounded=1;absoluteArcSize=1;arcSize=2;" vertex="1" parent="1">
          <mxGeometry x="-640" y="320" width="100" height="60" as="geometry" />
        </mxCell>
        <mxCell id="j3tMJ75PGgOThGVsg167-58" value="Firebase" style="sketch=0;dashed=0;connectable=0;html=1;fillColor=#5184F3;strokeColor=none;shape=mxgraph.gcp2.firebase;part=1;labelPosition=right;verticalLabelPosition=middle;align=left;verticalAlign=middle;spacingLeft=5;fontColor=#999999;fontSize=12;" vertex="1" parent="j3tMJ75PGgOThGVsg167-57">
          <mxGeometry width="32.4" height="45" relative="1" as="geometry">
            <mxPoint x="5" y="7" as="offset" />
          </mxGeometry>
        </mxCell>
        <mxCell id="j3tMJ75PGgOThGVsg167-60" value="Firebase Bucket" style="sketch=0;outlineConnect=0;fontColor=#232F3E;gradientColor=none;fillColor=#3F8624;strokeColor=none;dashed=0;verticalLabelPosition=bottom;verticalAlign=top;align=center;html=1;fontSize=12;fontStyle=0;aspect=fixed;pointerEvents=1;shape=mxgraph.aws4.bucket;" vertex="1" parent="1">
          <mxGeometry x="-615" y="495" width="75" height="78" as="geometry" />
        </mxCell>
      </root>
    </mxGraphModel>
  </diagram>
</mxfile>
